<svg preserveAspectRatio="none" width="100%" height="100%" overflow="visible" style="display: block;" viewBox="0 0 22.6796 22" fill="none" xmlns="http://www.w3.org/2000/svg">
<g id="Lines">
<path id="Path" d="M16.3941 17.1L0.319234 21.9891C0.160588 22.0373 0 21.9199 0 21.7557V18.168C0 18.0608 0.0706413 17.9661 0.174284 17.9346L16.2491 13.0456C16.4078 12.9973 16.5683 13.1147 16.5683 13.279V16.8666C16.5683 16.9739 16.4976 17.0685 16.3941 17.1Z" fill="var(--fill-0, #5200D4)"/>
<path id="Path_2" d="M19.4497 10.5827L3.37487 15.4718C3.21623 15.52 3.05564 15.4026 3.05564 15.2384V11.6507C3.05564 11.5435 3.12628 11.4488 3.22992 11.4173L19.3048 6.52826C19.4634 6.48002 19.624 6.59741 19.624 6.76165V10.3493C19.624 10.4566 19.5533 10.5512 19.4497 10.5827Z" fill="var(--fill-0, #3366FF)"/>
<path id="Path_3" d="M22.5054 4.06537L6.43059 8.95443C6.27194 9.00266 6.11136 8.88527 6.11136 8.72104V5.13338C6.11136 5.02613 6.182 4.93147 6.28564 4.89999L22.3604 0.0109348C22.519 -0.0373005 22.6796 0.0800864 22.6796 0.244321V3.83198C22.6796 3.93913 22.609 4.03389 22.5054 4.06537Z" fill="var(--fill-0, #80E8FF)"/>
</g>
</svg>
