<svg preserveAspectRatio="none" width="100%" height="100%" overflow="visible" style="display: block;" viewBox="0 0 47.5691 12.8765" fill="none" xmlns="http://www.w3.org/2000/svg">
<g id="Text">
<path id="Shape" d="M19.5774 1.47558e-05C16.0036 1.47558e-05 12.5706 2.85742 11.931 6.44711C11.2944 10.019 13.7091 12.8765 17.2829 12.8765C20.8567 12.8765 24.2897 10.0189 24.9261 6.44711C25.5658 2.85742 23.1512 1.47558e-05 19.5774 1.47558e-05ZM17.7029 10.5189C15.4468 10.5189 13.9965 8.73306 14.4038 6.44711C14.8144 4.14334 16.9013 2.35746 19.1574 2.35746C21.4135 2.35746 22.8639 4.14334 22.4534 6.44711C22.0459 8.73296 19.959 10.5189 17.7029 10.5189Z" fill="var(--fill-0, #140D26)"/>
<path id="Shape_2" d="M7.86526 5.94703C8.8495 5.58986 9.71046 4.60754 9.94277 3.30391C10.2451 1.60724 9.26073 0.142895 6.75194 0.142895H2.45619H1.07097C0.878463 0.142895 0.728552 0.35878 0.813969 0.51309L1.80144 2.29705L0.00531482 12.3763C-0.0233731 12.5371 0.0659262 12.6443 0.228455 12.6443H4.5242C7.68268 12.6443 9.40352 11.3942 9.82359 9.03666C10.1132 7.4116 9.14037 6.28639 7.86526 5.94703ZM4.27302 2.30377H6.13191C7.12477 2.30377 7.72894 2.66095 7.56027 3.60741C7.38199 4.60754 6.64969 5.07197 5.63861 5.07197H3.77972L4.27302 2.30377ZM4.98127 10.4834H2.81544L3.42015 7.09006H5.58598C6.90336 7.09006 7.59898 7.6437 7.39849 8.76891C7.1884 9.94747 6.29865 10.4834 4.98127 10.4834Z" fill="var(--fill-0, #140D26)"/>
<path id="Path" d="M33.4771 10.4834H29.3797L31.1747 0.410857C31.2033 0.250144 31.1144 0.142895 30.9518 0.142895L28.9034 0.800475C28.7135 0.857034 28.6137 0.907724 28.585 1.06844L26.5699 12.3764C26.5412 12.5372 26.6305 12.6444 26.7929 12.6444H33.0922C33.2544 12.6444 33.3819 12.5373 33.4106 12.3764L33.7002 10.7513C33.7286 10.5904 33.6393 10.4834 33.4771 10.4834Z" fill="var(--fill-0, #140D26)"/>
<path id="Shape_3" d="M41.94 0.142895H38.3841H36.9989C36.8064 0.142895 36.6565 0.35878 36.7419 0.51309L37.7296 2.29748L35.9336 12.3763C35.9049 12.5371 35.9939 12.6443 36.1564 12.6443H39.7123C44.044 12.6443 46.8294 9.87608 47.4499 6.39375C48.0705 2.91109 46.2718 0.142895 41.94 0.142895ZM40.0974 10.4834H38.7437L40.2013 2.30388H41.555C44.2981 2.30388 45.3994 3.82201 44.9411 6.39375C44.4829 8.96548 42.8404 10.4834 40.0974 10.4834Z" fill="var(--fill-0, #140D26)"/>
</g>
</svg>
