<svg preserveAspectRatio="none" width="100%" height="100%" overflow="visible" style="display: block;" viewBox="0 0 55.3406 54.9993" fill="none" xmlns="http://www.w3.org/2000/svg">
<g id="Lines">
<path id="Path" d="M40.0015 42.7494L0.778931 54.972C0.391834 55.0926 0 54.7991 0 54.3885V45.4194C0 45.1513 0.172365 44.9146 0.425254 44.8359L39.6478 32.6133C40.0349 32.4927 40.4268 32.7862 40.4268 33.1967V42.1659C40.4268 42.434 40.2541 42.6707 40.0015 42.7494Z" fill="var(--fill-0, white)"/>
<path id="Path_2" d="M47.4546 26.4564L8.23206 38.679C7.84496 38.7996 7.45312 38.5062 7.45312 38.0956V29.1264C7.45312 28.8583 7.62549 28.6216 7.87838 28.5429L47.101 16.3203C47.4881 16.1997 47.8799 16.4932 47.8799 16.9038V25.8729C47.8799 26.1411 47.7075 26.3777 47.4546 26.4564Z" fill="var(--fill-0, white)"/>
<path id="Path_3" d="M54.9156 10.1634L15.693 22.3861C15.3059 22.5067 14.9141 22.2132 14.9141 21.8026V12.8334C14.9141 12.5653 15.0864 12.3287 15.3393 12.25L54.5616 0.0273371C54.9487 -0.0932512 55.3406 0.200216 55.3406 0.610803V9.57996C55.3406 9.84781 55.1682 10.0847 54.9156 10.1634Z" fill="var(--fill-0, white)"/>
</g>
</svg>
