<svg preserveAspectRatio="none" width="100%" height="100%" overflow="visible" style="display: block;" viewBox="0 0 116.068 32.1912" fill="none" xmlns="http://www.w3.org/2000/svg">
<g id="Text">
<path id="Shape" d="M47.7729 0C39.0529 0 30.6765 7.14352 29.1157 16.1177C27.5626 25.0474 33.4543 32.1912 42.1744 32.1912C50.8945 32.1912 59.2711 25.0472 60.824 16.1177C62.3847 7.14352 56.493 0 47.7729 0ZM43.1994 26.2973C37.6945 26.2973 34.1556 21.8326 35.1495 16.1177C36.1513 10.3583 41.2433 5.89362 46.7482 5.89362C52.2531 5.89362 55.792 10.3583 54.7904 16.1177C53.7962 21.8324 48.7042 26.2973 43.1994 26.2973Z" fill="var(--fill-0, white)"/>
<path id="Shape_2" d="M19.1912 14.8697C21.5928 13.9768 23.6935 11.521 24.2603 8.26191C24.998 4.02024 22.5962 0.359375 16.4747 0.359375H5.9931H2.61318C2.14345 0.359375 1.77767 0.899088 1.98608 1.28486L4.39551 5.74476L0.0129682 30.9429C-0.0570304 31.345 0.16086 31.6128 0.55743 31.6128H11.039C18.7457 31.6128 22.9446 28.4877 23.9696 22.5938C24.6761 18.5311 22.3025 15.7181 19.1912 14.8697ZM10.4262 5.76157H14.9619C17.3844 5.76157 18.8586 6.65451 18.447 9.02066C18.0121 11.521 16.2253 12.6821 13.7582 12.6821H9.22251L10.4262 5.76157ZM12.1543 26.2106H6.86966L8.34516 17.7273H13.6298C16.8442 17.7273 18.5415 19.1114 18.0523 21.9244C17.5397 24.8708 15.3687 26.2106 12.1543 26.2106Z" fill="var(--fill-0, white)"/>
<path id="Path" d="M81.6869 26.2106H71.6892L76.0688 1.02928C76.1388 0.627497 75.9217 0.359375 75.5252 0.359375L70.5268 2.00332C70.0637 2.14472 69.82 2.27145 69.75 2.67323L64.8333 30.9432C64.7633 31.3452 64.9812 31.6131 65.3772 31.6131H80.7477C81.1435 31.6131 81.4545 31.3455 81.5245 30.9432L82.2311 26.8803C82.3005 26.4782 82.0827 26.2106 81.6869 26.2106Z" fill="var(--fill-0, white)"/>
<path id="Shape_3" d="M102.333 0.359375H93.6564H90.2765C89.8068 0.359375 89.441 0.899088 89.6494 1.28486L92.0593 5.74583L87.6771 30.9429C87.6071 31.345 87.8242 31.6128 88.2207 31.6128H96.8971C107.467 31.6128 114.263 24.6923 115.777 15.9865C117.291 7.27986 112.902 0.359375 102.333 0.359375ZM97.8368 26.2106H94.5338L98.0903 5.76184H101.393C108.087 5.76184 110.774 9.55717 109.656 15.9865C108.537 22.4158 104.53 26.2106 97.8368 26.2106Z" fill="var(--fill-0, white)"/>
</g>
</svg>
