<svg preserveAspectRatio="none" width="100%" height="100%" overflow="visible" style="display: block;" viewBox="0 0 84.3618 23.4118" fill="none" xmlns="http://www.w3.org/2000/svg">
<g id="Text">
<path id="Shape" d="M34.7168 0C28.3793 0 22.2915 5.19529 21.1572 11.722C20.0284 18.2163 24.3104 23.4118 30.6479 23.4118C36.9854 23.4118 43.0734 18.2161 44.202 11.722C45.3363 5.19529 41.0544 0 34.7168 0ZM31.3928 19.1253C27.392 19.1253 24.8201 15.8783 25.5424 11.722C26.2705 7.53332 29.9713 4.28627 33.9721 4.28627C37.9729 4.28627 40.5449 7.53332 39.8169 11.722C39.0944 15.8781 35.3937 19.1253 31.3928 19.1253Z" fill="var(--fill-0, #140D26)"/>
<path id="Shape_2" d="M13.9477 10.8127C15.6931 10.1633 17.2199 8.37731 17.6318 6.00706C18.1679 2.92222 16.4224 0.259766 11.9734 0.259766H4.35564H1.89919C1.55781 0.259766 1.29197 0.652284 1.44344 0.932848L3.19455 4.17641L0.00942494 22.5023C-0.0414483 22.7947 0.116909 22.9895 0.405127 22.9895H8.02292C13.6239 22.9895 16.6756 20.7167 17.4205 16.4302C17.934 13.4756 16.2089 11.4298 13.9477 10.8127ZM7.57749 4.18864H10.8739C12.6346 4.18864 13.706 4.83805 13.4069 6.55888C13.0907 8.37731 11.7921 9.22172 9.99913 9.22172H6.7027L7.57749 4.18864ZM8.83344 19.0607H4.99271L6.06506 12.891H9.9058C12.242 12.891 13.4755 13.8976 13.12 15.9434C12.7474 18.0863 11.1696 19.0607 8.83344 19.0607Z" fill="var(--fill-0, #140D26)"/>
<path id="Path" d="M59.3676 19.0607H52.1015L55.2845 0.74697C55.3354 0.454764 55.1776 0.259766 54.8894 0.259766L51.2567 1.45537C50.9201 1.5582 50.743 1.65036 50.6922 1.94257L47.1188 22.5025C47.0679 22.7949 47.2263 22.9897 47.5141 22.9897H58.685C58.9726 22.9897 59.1987 22.7951 59.2496 22.5025L59.7631 19.5477C59.8136 19.2553 59.6552 19.0607 59.3676 19.0607Z" fill="var(--fill-0, #140D26)"/>
<path id="Shape_3" d="M74.3796 0.259766H68.0738H65.6174C65.276 0.259766 65.0102 0.652284 65.1616 0.932848L66.9131 4.17719L63.7282 22.5023C63.6773 22.7947 63.8351 22.9895 64.1233 22.9895H70.4291C78.1108 22.9895 83.0501 17.9565 84.1506 11.6249C85.251 5.29285 82.0613 0.259766 74.3796 0.259766ZM71.1121 19.0607H68.7115L71.2963 4.18883H73.6969C78.5614 4.18883 80.5143 6.94907 79.7016 11.6249C78.889 16.3008 75.9764 19.0607 71.1121 19.0607Z" fill="var(--fill-0, #140D26)"/>
</g>
</svg>
