<svg preserveAspectRatio="none" width="100%" height="100%" overflow="visible" style="display: block;" viewBox="0 0 40.217 39.9999" fill="none" xmlns="http://www.w3.org/2000/svg">
<g id="Lines">
<path id="Path" d="M29.0721 31.0908L0.566108 39.98C0.284775 40.0677 0 39.8543 0 39.5557V33.0326C0 32.8376 0.125271 32.6655 0.309064 32.6083L28.8151 23.7191C29.0964 23.6314 29.3812 23.8448 29.3812 24.1434V30.6665C29.3812 30.8615 29.2557 31.0336 29.0721 31.0908Z" fill="var(--fill-0, #5200D4)"/>
<path id="Path_2" d="M34.494 19.2412L5.98798 28.1304C5.70665 28.2181 5.42188 28.0047 5.42188 27.706V21.183C5.42188 20.988 5.54715 20.8159 5.73094 20.7587L34.237 11.8695C34.5183 11.7818 34.8031 11.9952 34.8031 12.2938V18.8169C34.8031 19.0119 34.6778 19.184 34.494 19.2412Z" fill="var(--fill-0, #3366FF)"/>
<path id="Path_3" d="M39.9081 7.39158L11.402 16.2808C11.1207 16.3685 10.8359 16.155 10.8359 15.8564V9.33341C10.8359 9.13841 10.9612 8.96631 11.145 8.90907L39.6508 0.0198815C39.9322 -0.0678191 40.217 0.145612 40.217 0.44422V6.96724C40.217 7.16205 40.0917 7.33434 39.9081 7.39158Z" fill="var(--fill-0, #80E8FF)"/>
</g>
</svg>
