<svg preserveAspectRatio="none" width="100%" height="100%" overflow="visible" style="display: block;" viewBox="0 0 172 34.0032" fill="none" xmlns="http://www.w3.org/2000/svg">
<g id="Group">
<path id="Vector" d="M81.0058 19.4644C81.0058 19.8104 80.7119 19.8897 80.2549 19.8897H76.5325C76.0788 19.8897 75.756 19.7818 75.756 19.439C75.756 19.201 76.0244 19.0931 76.2098 18.9598C76.558 18.7726 76.8265 18.5345 77.0118 18.2965C77.2259 17.8966 77.3601 17.4459 77.3601 13.4566V3.5356C77.3601 3.4816 77.3345 3.4276 77.2546 3.4276C77.1747 3.4276 77.1492 3.4816 77.1204 3.5356L71.0718 16.5129C70.9376 16.7795 70.8577 16.8049 70.6181 16.8049H70.11C69.8704 16.8049 69.7618 16.7509 69.6563 16.5129L63.6333 3.5102C63.6077 3.4562 63.579 3.4308 63.5246 3.4308C63.4703 3.4308 63.4192 3.4562 63.4192 3.5387C63.4192 5.8778 63.4448 14.1738 63.5246 15.5322C63.6333 17.7379 64.2468 18.5091 65.3971 18.909C65.7453 19.0423 65.8795 19.201 65.8795 19.4422C65.8795 19.7342 65.6111 19.8929 65.2373 19.8929H61.0356C60.4732 19.8929 60.2847 19.6802 60.2847 19.4136C60.2847 19.0138 60.7672 18.909 61.141 18.5631C61.943 17.8712 62.2657 16.7826 62.2657 13.0853V2.8976C62.2657 2.631 62.1603 2.4977 62.0772 2.4184C61.8887 2.2312 61.6746 2.1264 61.3551 1.9931C60.9014 1.8059 60.4987 1.7265 60.4987 1.3298C60.4987 1.0918 60.7128 0.9045 61.141 0.9045H64.1126C64.4609 0.9045 64.7293 1.0093 64.8635 1.3298L70.7523 14.0405C70.8066 14.1453 70.8322 14.1992 70.8865 14.1992C70.9408 14.1992 70.9664 14.1453 71.0207 14.0405L76.9638 1.3298C77.1236 0.9839 77.3121 0.9045 77.6061 0.9045H80.2038C80.6064 0.9045 80.8461 0.9839 80.8716 1.3044C80.8716 1.6504 80.469 1.7043 80.0696 1.9677C79.5328 2.3137 79.4274 2.7643 79.4274 4.8653V15.5798C79.4274 17.4396 79.5328 17.8934 79.7757 18.2933C79.9354 18.5314 80.2294 18.7726 80.5521 18.9566C80.7662 19.0899 81.0058 19.1947 81.0058 19.4612V19.4644Z" fill="var(--fill-0, white)"/>
<path id="Vector_2" d="M95.5698 17.0174C95.5698 17.576 94.7678 18.4265 93.6974 19.1438C92.6813 19.8071 91.3936 20.1816 90.1091 20.1816C86.5208 20.1816 83.7633 17.4427 83.7633 13.32C83.7633 9.41 86.441 5.7158 90.5373 5.7158C92.0646 5.7158 93.4289 6.2744 94.3652 7.1789C95.2215 8.0295 95.8637 9.2545 95.8637 10.5303C95.8637 11.8855 95.3557 12.4441 93.8028 12.4441H86.2269C86.0383 12.4441 85.9329 12.498 85.9329 12.7107C85.9329 14.0659 86.1725 15.5289 86.9778 16.6715C87.7798 17.8426 88.9588 18.7185 90.5916 18.7185C91.5821 18.7185 92.464 18.398 93.0551 18.0552C94.2342 17.3634 94.5537 16.4874 95.0617 16.4874C95.3557 16.4874 95.5698 16.7254 95.5698 17.0206V17.0174ZM86.3611 11.3809H91.1539C92.7867 11.3809 93.6175 11.0604 93.6175 9.6798C93.6175 8.2992 92.4672 6.7822 90.3232 6.7822C87.3516 6.7822 86.1214 10.0003 86.1214 11.1429C86.1214 11.3301 86.2013 11.3809 86.3611 11.3809Z" fill="var(--fill-0, white)"/>
<path id="Vector_3" d="M112.22 18.8519C112.22 19.0645 112.14 19.2518 111.549 19.385C110.667 19.5977 110.37 19.677 109.702 19.969C109.408 20.1023 109.22 20.207 108.98 20.207C108.661 20.207 108.498 19.9404 108.498 19.5691V17.9474C108.498 17.8141 108.472 17.7601 108.392 17.7601C108.338 17.7601 108.284 17.8141 108.204 17.8934C107.053 19.2232 105.501 20.1816 103.705 20.1816C100.065 20.1816 98.2442 16.9381 98.2442 13.5613C98.2442 9.4132 100.762 5.7159 104.481 5.7159C105.82 5.7159 107.105 6.1951 108.175 6.9377C108.28 7.0171 108.335 7.0425 108.389 7.0425C108.443 7.0425 108.495 6.9885 108.495 6.9092V4.0909C108.495 3.1325 108.495 2.5739 108.201 2.2565C108.012 2.0439 107.747 1.9106 107.37 1.8058C106.942 1.7011 106.753 1.5678 106.753 1.3552C106.753 1.1171 106.833 0.9553 107.45 0.7966C108.335 0.584 108.788 0.4507 109.485 0.1587C109.68 0.0793 109.84 0 110.025 0C110.373 0 110.508 0.2666 110.508 0.6379V16.4049C110.508 17.1761 110.533 17.6268 110.801 17.922C110.99 18.1346 111.284 18.2679 111.632 18.3726C112.06 18.4805 112.22 18.6392 112.22 18.8519ZM108.498 12.8694C108.498 8.8801 106.756 6.8076 104.376 6.8076C101.995 6.8076 100.334 9.2546 100.334 12.8155C100.334 16.3764 102.181 18.6392 104.564 18.6392C106.948 18.6392 108.501 16.6969 108.501 12.8694H108.498Z" fill="var(--fill-0, white)"/>
<path id="Vector_4" d="M119.879 19.4358C119.879 19.7818 119.611 19.8865 119.262 19.8865H115.275C114.927 19.8865 114.658 19.7786 114.658 19.4358C114.658 19.2771 114.764 19.1438 115.061 18.9852C115.3 18.8519 115.649 18.6646 115.837 18.3472C116.106 17.9474 116.24 17.3634 116.24 15.5036V9.4418C116.24 8.696 116.214 8.2707 115.971 7.9787C115.783 7.7661 115.463 7.6328 115.141 7.5534C114.712 7.4455 114.524 7.3154 114.524 7.0742C114.524 6.833 114.604 6.6743 115.246 6.5156C116.157 6.303 116.585 6.1697 117.361 5.8523C117.55 5.773 117.684 5.719 117.815 5.719C118.163 5.719 118.298 5.9856 118.298 6.3569V15.5036C118.298 17.3634 118.457 17.9759 118.7 18.3472C118.914 18.6678 119.237 18.8519 119.477 18.9852C119.799 19.1724 119.879 19.2771 119.879 19.4358ZM117.202 3.3229C116.665 3.3229 115.543 2.1803 115.543 1.6472C115.543 1.114 116.665 0 117.202 0C117.764 0 118.889 1.1171 118.889 1.6472C118.889 2.2057 117.764 3.3229 117.202 3.3229Z" fill="var(--fill-0, white)"/>
<path id="Vector_5" d="M128.283 20.207C126.381 20.207 124.669 19.4104 123.544 17.868C122.688 16.6969 122.34 15.3417 122.34 13.7199C122.34 11.3269 123.276 8.642 125.417 7.0456C126.675 6.0871 127.985 5.7158 129.513 5.7158C130.478 5.7158 132.031 5.9824 132.698 6.6743C133.101 7.0742 133.181 7.8454 133.181 8.4833C133.181 9.5719 133.021 10.0003 132.539 10.0003C131.896 10.0003 131.871 9.2291 131.309 8.4325C130.692 7.5534 129.81 6.9694 128.605 6.9694C127.401 6.9694 126.49 7.582 125.873 8.3246C124.777 9.629 124.455 11.2762 124.455 13.0312C124.455 14.3864 124.803 15.7162 125.34 16.5953C126.196 18.0044 127.615 18.617 128.979 18.617C130.507 18.617 131.657 17.8458 132.379 17.0492C132.619 16.7826 132.807 16.5699 133.101 16.5699C133.395 16.5699 133.555 16.808 133.555 17.0492C133.555 17.2364 133.449 17.449 133.315 17.6617C132.405 19.1248 130.478 20.2133 128.283 20.2133V20.207Z" fill="var(--fill-0, white)"/>
<path id="Vector_6" d="M147.56 18.7979C147.56 19.4104 146.783 20.1816 145.872 20.1816C145.07 20.1816 144.265 19.6484 144.106 18.0267C144.106 17.9727 144.106 17.9219 144.051 17.9219C144.026 17.9219 143.997 17.9473 143.946 18.0267C143.061 19.4612 141.377 20.1816 139.715 20.1816C137.6 20.1816 135.565 18.9312 135.565 16.7794C135.565 15.7416 136.101 14.7323 137.143 14.0151C138.587 13.0058 140.22 12.7932 141.773 12.0728C143.38 11.3269 144.022 10.3177 144.022 9.2291C144.022 7.9279 143.192 6.8108 141.588 6.8108C140.706 6.8108 140.035 7.0773 139.447 7.5566C138.482 8.3278 138.082 9.2862 137.76 9.7115C137.626 9.9242 137.466 10.1114 137.197 10.1114C136.609 10.1114 136.609 9.4195 136.609 8.9403C136.609 8.277 136.744 7.3979 137.038 6.998C137.411 6.5473 138.188 6.2014 139.044 5.9888C139.715 5.8015 140.517 5.7222 141.239 5.7222C143.141 5.7222 144.265 6.3601 145.013 7.1852C146.058 8.3564 146.112 9.9496 146.112 11.3079C146.112 12.7424 146.032 14.3134 146.032 15.8812C146.032 17.0777 146.032 18.4615 146.783 18.4615C146.889 18.4615 147.077 18.4075 147.186 18.4075C147.534 18.4075 147.56 18.6995 147.56 18.8074V18.7979ZM144.026 12.2029C144.026 12.1489 144 12.0982 143.946 12.0982C143.92 12.0982 143.891 12.0982 143.84 12.1521C142.77 13.0312 140.76 13.5359 139.316 14.4404C138.3 15.0783 137.872 15.9574 137.872 16.808C137.872 18.1631 138.888 19.0137 140.201 19.0137C141.351 19.0137 142.664 18.3758 143.387 16.8873C144.003 15.6115 144.029 14.2817 144.029 12.606V12.2061L144.026 12.2029Z" fill="var(--fill-0, white)"/>
<path id="Vector_7" d="M158.884 7.2582C158.884 7.7914 158.695 8.3214 158.133 8.3214C157.465 8.3214 157.276 7.7629 156.474 7.7629C155.912 7.7629 155.244 8.0548 154.682 8.9594C153.931 10.1812 153.797 11.5904 153.797 15.5258C153.797 17.3602 153.985 17.9727 154.199 18.344C154.388 18.6646 154.787 18.8486 154.976 18.9566C155.295 19.1152 155.378 19.2771 155.378 19.4612C155.378 19.7817 155.11 19.8865 154.762 19.8865H150.8C150.477 19.8865 150.183 19.7785 150.183 19.4612C150.183 19.2739 150.288 19.1152 150.585 18.9566C150.854 18.8233 151.202 18.636 151.416 18.2393C151.63 17.8394 151.79 17.3634 151.79 15.5258C151.79 13.6882 151.765 10.5018 151.765 10.2606C151.765 8.9847 151.685 8.3183 151.391 8.0009C151.151 7.7343 150.937 7.6803 150.56 7.5502C150.32 7.4709 149.972 7.3376 149.972 7.0456C149.972 6.7536 150.077 6.5949 150.64 6.4616C151.391 6.303 151.71 6.1951 152.407 5.9031C152.701 5.7698 152.86 5.7444 153.023 5.7444C153.426 5.7444 153.56 5.9824 153.56 6.3823V8.5373C153.56 8.5912 153.586 8.6166 153.615 8.6166C153.643 8.6166 153.669 8.5626 153.694 8.5119C154.202 7.528 155.701 5.719 157.363 5.719C158.542 5.719 158.89 6.5695 158.89 7.2614L158.884 7.2582Z" fill="var(--fill-0, white)"/>
<path id="Vector_8" d="M171.706 17.0174C171.706 17.576 170.904 18.4265 169.834 19.1438C168.818 19.8071 167.533 20.1816 166.245 20.1816C162.657 20.1816 159.9 17.4427 159.9 13.32C159.9 9.41 162.577 5.7158 166.674 5.7158C168.201 5.7158 169.565 6.2744 170.501 7.1789C171.358 8.0295 172 9.2545 172 10.5303C172 11.8855 171.492 12.4441 169.939 12.4441H162.363C162.175 12.4441 162.069 12.498 162.069 12.7107C162.069 14.0659 162.309 15.5289 163.114 16.6715C163.916 17.8426 165.095 18.7185 166.728 18.7185C167.718 18.7185 168.6 18.398 169.191 18.0552C170.37 17.3634 170.69 16.4874 171.198 16.4874C171.492 16.4874 171.706 16.7254 171.706 17.0206V17.0174ZM162.497 11.3809H167.29C168.923 11.3809 169.754 11.0604 169.754 9.6798C169.754 8.2992 168.603 6.7822 166.459 6.7822C163.488 6.7822 162.258 10.0003 162.258 11.1429C162.258 11.3301 162.338 11.3809 162.497 11.3809Z" fill="var(--fill-0, white)"/>
<path id="Vector_9" d="M65.0296 33.8064L64.5056 31.9148H62.1667L61.6426 33.8064H60.2399L62.4191 26.6147H64.3043L66.493 33.8064H65.0296ZM62.4894 30.7628H64.1829L63.3457 27.7573H63.3265L62.4894 30.7628Z" fill="var(--fill-0, white)"/>
<path id="Vector_10" d="M69.3368 33.8064V26.6147H71.5543C73.9252 26.6147 75.085 27.7954 75.085 30.109C75.085 32.4226 73.7942 33.8064 71.4137 33.8064H69.3368ZM71.5064 32.6035C73.0177 32.6035 73.6951 31.753 73.6951 30.1407C73.6951 28.5285 73.0401 27.8176 71.647 27.8176H70.7299V32.6067H71.5064V32.6035Z" fill="var(--fill-0, white)"/>
<path id="Vector_11" d="M79.5424 33.8064L77.3025 26.6147H78.8139L80.338 32.1148H80.3572L82.0411 26.6147H83.5237L81.1528 33.8064H79.5392H79.5424Z" fill="var(--fill-0, white)"/>
<path id="Vector_12" d="M89.9302 33.8064L89.4061 31.9148H87.0672L86.5432 33.8064H85.1405L87.3196 26.6147H89.2048L91.3936 33.8064H89.9302ZM87.3899 30.7628H89.0834L88.2463 27.7573H88.2271L87.3899 30.7628Z" fill="var(--fill-0, white)"/>
<path id="Vector_13" d="M98.634 33.8064L95.5698 28.5475H95.5506V33.8064H94.2405V26.6147H95.966L98.6883 31.4229H98.7075V26.6147H100.008V33.8064H98.6372H98.634Z" fill="var(--fill-0, white)"/>
<path id="Vector_14" d="M104.839 33.8064V27.7763H102.884V26.6147H108.197V27.7763H106.232V33.8064H104.839Z" fill="var(--fill-0, white)"/>
<path id="Vector_15" d="M114.623 33.8064L114.099 31.9148H111.76L111.236 33.8064H109.833L112.012 26.6147H113.898L116.086 33.8064H114.623ZM112.083 30.7628H113.776L112.939 27.7573H112.92L112.083 30.7628Z" fill="var(--fill-0, white)"/>
<path id="Vector_16" d="M123.014 33.8064V33.1462H122.995C122.522 33.6985 121.927 33.927 121.17 33.927C119.314 33.927 118.355 32.4956 118.355 30.182C118.355 27.8684 119.473 26.4973 121.371 26.4973C122.803 26.4973 123.691 27.1479 124.043 28.6301L122.784 28.8713C122.531 27.9509 122.058 27.6399 121.371 27.6399C120.371 27.6399 119.748 28.5412 119.748 30.1947C119.748 31.8482 120.253 32.8194 121.451 32.8194C122.34 32.8194 122.902 32.2989 122.902 31.4356C122.902 31.3753 122.902 31.315 122.892 31.2357H121.451V30.2328H124.113V33.8096H123.014V33.8064Z" fill="var(--fill-0, white)"/>
<path id="Vector_17" d="M127.426 33.8064V26.6147H132.104V27.7763H128.816V29.5377H131.165V30.6581H128.816V32.6416H132.216V33.8032H127.426V33.8064Z" fill="var(--fill-0, white)"/>
<path id="Vector_18" d="M139.626 33.8064V26.6147H142.118C143.994 26.6147 144.911 27.3352 144.911 28.8173C144.911 30.2994 143.882 31.0611 142.096 31.0611H141.016V33.8064H139.623H139.626ZM142.156 29.9313C142.802 29.9313 143.518 29.7599 143.518 28.8205C143.518 28.1191 143.045 27.7795 142.208 27.7795H141.019V29.9313H142.16H142.156Z" fill="var(--fill-0, white)"/>
<path id="Vector_19" d="M147.844 33.8064V26.6147H149.237V32.6448H152.292V33.8064H147.844Z" fill="var(--fill-0, white)"/>
<path id="Vector_20" d="M159.599 33.8064L159.075 31.9148H156.736L156.212 33.8064H154.81L156.989 26.6147H158.874L161.063 33.8064H159.599ZM157.059 30.7628H158.753L157.915 27.7573H157.896L157.059 30.7628Z" fill="var(--fill-0, white)"/>
<path id="Vector_21" d="M168.3 33.8064L165.236 28.5475H165.216V33.8064H163.906V26.6147H165.632L168.354 31.4229H168.373V26.6147H169.674V33.8064H168.303H168.3Z" fill="var(--fill-0, white)"/>
<path id="Vector_22" d="M52.0505 0H51.0919V33.9238H52.0505V0Z" fill="var(--fill-0, white)"/>
<path id="Vector_23" d="M0 0V18.9026H41.1516V0H0ZM13.011 10.3273C12.8129 12.441 11.4006 14.0246 9.11603 14.0246C7.33628 14.0246 6.19238 12.8789 5.97191 11.2286C5.93037 10.9112 5.95274 10.4542 5.95274 10.2321L6.42883 4.8399H8.20858L7.71971 10.2797C7.61427 11.4603 8.08077 12.2981 9.26301 12.2981C10.4453 12.2981 11.1131 11.4444 11.2185 10.4003L11.7234 4.8399H13.4999L13.011 10.3273ZM21.3858 7.4773C20.686 6.5601 19.8521 6.4109 19.0852 6.4109C17.1968 6.4109 16.1584 7.7153 16.0082 9.3656C15.8644 10.9747 16.7015 12.2791 18.5324 12.2791C19.3312 12.2791 20.178 12.0506 21.0662 11.1715L20.8681 13.3677C20.0022 13.831 19.2002 14.0437 18.3918 14.0437C15.3851 14.0437 14.008 11.8253 14.222 9.4005C14.4553 6.814 16.2127 4.6654 19.2513 4.6654C20.0534 4.6654 20.8202 4.8463 21.5871 5.3382L21.3858 7.4741V7.4773ZM27.4631 13.8342H22.2038L23.009 4.8367H24.7823L24.1369 12.1585H26.6739C26.856 12.1585 27.4599 12.149 27.6229 12.1395C27.6133 12.2283 27.4631 13.831 27.4631 13.831V13.8342ZM34.138 13.8342L33.7098 12.406H30.2909L29.6103 13.8342H27.7251L32.5787 4.4273H32.7001L36.0168 13.8342H34.138Z" fill="var(--fill-0, white)"/>
<path id="Vector_24" d="M32.403 7.8201H32.3742C32.3519 7.9153 32.3007 8.074 32.2432 8.2009C32.2177 8.2612 31.0194 10.8922 31.0194 10.8922H33.2561C33.2561 10.8922 32.5659 8.6135 32.4669 8.2041C32.4317 8.0708 32.4094 7.9343 32.3998 7.8201H32.403Z" fill="var(--fill-0, white)"/>
<path id="Vector_25" d="M6.05496 33.8223V33.4002C7.09981 33.3938 7.42253 33.1526 7.42253 32.3878V28.8015H2.94599V32.3878C2.94599 33.1653 3.28149 33.397 4.43178 33.4002V33.8223H0.140564V33.4002C1.18541 33.3938 1.50813 33.1526 1.50813 32.3878V25.1834C1.50813 24.4154 1.1886 24.1742 0.140564 24.171V23.7489H4.39983V24.171C3.2719 24.1774 2.94279 24.409 2.94279 25.1834V28.3222H7.41933V25.1834C7.41933 24.4154 7.09022 24.1742 6.02301 24.171V23.7489H10.1928V24.171C9.17032 24.1774 8.854 24.4186 8.854 25.1834V32.3878C8.854 33.1558 9.18311 33.397 10.2503 33.4002V33.8223H6.04857H6.05496Z" fill="var(--fill-0, white)"/>
<path id="Vector_26" d="M13.5574 34C11.7777 34 10.327 32.3814 10.327 30.3946C10.327 28.4079 11.7745 26.7893 13.5574 26.7893C15.4362 26.7893 16.6536 28.1699 16.6664 30.3661H11.8512V30.3502C11.8512 32.3401 12.6915 33.5239 14.0463 33.5239C15.1199 33.5239 15.8069 32.813 16.283 32.1814L16.5737 32.429C16.005 33.251 15.2349 34.0032 13.5542 34.0032L13.5574 34ZM13.5287 27.2114C12.4167 27.2114 11.8544 28.1001 11.8544 29.8488V29.8869H15.2317V29.8488C15.2317 28.1001 14.6598 27.2114 13.5287 27.2114Z" fill="var(--fill-0, white)"/>
<path id="Vector_27" d="M19.4558 34C18.4333 34 17.4012 33.4858 17.4012 32.3433C17.4012 30.912 19.7466 30.1979 21.1493 29.7726C21.3857 29.7028 21.5966 29.6361 21.7723 29.5758L21.7979 29.5663V28.1667C21.7979 27.4621 20.9512 27.2114 20.229 27.2114C19.6539 27.2114 19.2289 27.3225 18.8103 27.5859L18.7241 27.6399L18.8231 27.6589C19.2034 27.7287 19.4302 28.0048 19.4302 28.4016C19.4302 28.7983 19.1171 29.2172 18.609 29.2172C18.101 29.2172 17.7879 28.7919 17.7879 28.4016C17.7879 27.5256 18.9254 26.7893 20.2738 26.7893C22.3187 26.7893 23.1175 27.3479 23.1175 28.7856V32.356C23.1175 33.0828 23.2933 33.2224 23.6192 33.2224C24.0058 33.2224 24.1752 32.6734 24.1816 32.1878H24.5746C24.5618 33.0288 24.1656 33.9111 23.0824 33.9111C22.2772 33.9111 22.0439 33.4351 21.9193 32.6162L21.9129 32.5813H21.8778L21.8682 32.6067C21.5071 33.5557 20.7019 33.9968 19.459 33.9968L19.4558 34ZM21.75 29.9725C20.4463 30.2867 18.9254 31.0802 18.9254 32.283C18.9254 33.0193 19.328 33.4573 20.0054 33.4573C21.0119 33.4573 21.7979 32.5052 21.7979 31.2928V29.9598L21.75 29.9725Z" fill="var(--fill-0, white)"/>
<path id="Vector_28" d="M24.5331 33.8223V33.4002C25.3862 33.3938 25.661 33.232 25.661 32.74V24.9168C25.661 24.4249 25.3862 24.263 24.5331 24.2567V23.8314L26.9806 23.7457V32.7369C26.9806 33.2288 27.2554 33.3906 28.1118 33.397V33.8191H24.5363L24.5331 33.8223Z" fill="var(--fill-0, white)"/>
<path id="Vector_29" d="M31.1217 34C29.8595 34 29.3195 33.4732 29.3195 32.2386V27.386H28.2364V26.9607C29.5848 26.8401 29.7892 26.4625 30.1759 24.663H30.6392V26.91H32.7065V27.3892H30.6392V32.7718C30.6392 33.3145 30.9204 33.5779 31.4955 33.5779C31.7447 33.5779 32.5659 33.4192 32.5659 31.9435V31.6737H32.9589V31.8863C32.9589 33.3907 32.4285 34.0032 31.1249 34.0032L31.1217 34Z" fill="var(--fill-0, white)"/>
<path id="Vector_30" d="M38.6944 33.8223V28.9316C38.6944 27.5098 37.9243 27.2971 37.4674 27.2971C36.3746 27.2971 35.6142 28.6332 35.6142 29.8297V32.7369C35.6142 33.2288 35.8953 33.3906 36.774 33.397V33.8191H33.2433V33.397C34.0325 33.3906 34.2977 33.2224 34.2977 32.7369V24.9137C34.2977 24.4281 34.0293 24.2599 33.2433 24.2535V23.8282L35.6174 23.7426V28.2587H35.6557L35.6653 28.2365C36.0871 27.2876 36.8763 26.783 37.838 26.783C38.6496 26.783 40.014 27.1289 40.014 29.4457V32.7369C40.014 33.2224 40.2824 33.3906 41.0684 33.397V33.8191H38.6944V33.8223Z" fill="var(--fill-0, white)"/>
</g>
</svg>
