<svg preserveAspectRatio="none" width="100%" height="100%" overflow="visible" style="display: block;" viewBox="0 0 136.693 35.125" fill="none" xmlns="http://www.w3.org/2000/svg">
<g id="Group">
<path id="Vector" d="M41.5966 20.375V30.125C41.5966 33.25 39.9679 35.125 37.7126 35.125C36.9609 35.125 36.2091 34.875 35.5827 34.5L35.4574 34.375C35.9585 34.5 36.4597 34.625 36.9609 34.625C39.2161 34.625 40.7196 33 40.7196 30V20.875L41.5966 20.375ZM39.9679 21.125V30C39.9679 32.75 38.5897 34.25 36.585 34.25C35.9585 34.25 35.2068 34 34.5803 33.625V33.375C35.0815 33.5 35.5827 33.625 36.0838 33.625C37.9632 33.625 39.2161 32.5 39.2161 29.75V21.375L39.9679 21.125ZM38.3391 21.75V29.75C38.3391 32.125 37.2115 33.125 35.708 33.125C35.0815 33.125 34.5803 32.875 34.0792 32.625L33.9539 32.5C34.455 32.625 34.8309 32.75 35.2068 32.75C36.7103 32.75 37.5873 32 37.5873 29.875V22.125L38.3391 21.75ZM36.7103 22.5V30.125C36.7103 31.5 36.0838 32.25 34.9562 32.25C33.8286 32.25 33.0768 31.5 33.0768 30.25V24L36.7103 22.5ZM47.8612 23.25V23.75H47.7359C47.2347 23.75 46.8589 24.125 46.8589 24.5V29C46.8589 30.375 47.6106 31.25 48.7382 31.25C49.8659 31.25 50.6176 30.375 50.6176 29V24.625C50.6176 24.125 50.2417 23.75 49.7406 23.75H49.49V23.25H52.3717V23.75H52.2464C51.7452 23.75 51.3693 24.25 51.3693 24.625V29.125C51.3693 31 50.1164 32.25 48.4877 32.25C46.483 32.25 45.4807 30.875 45.4807 29.125V24.5C45.4807 24 45.2301 23.75 44.6036 23.75H44.353V23.25H47.8612ZM132.683 25.625C134.187 25.625 135.189 26.875 135.189 28.5V28.875H131.305C131.305 30.375 132.057 31.375 133.059 31.375C133.936 31.375 134.437 30.875 134.688 30.125L135.189 30.25C134.939 31.25 134.187 32.125 132.934 32.125C131.18 32.125 130.052 30.5 130.052 28.875C129.927 27.25 131.054 25.625 132.683 25.625ZM121.532 25.625C122.911 25.625 123.788 26.375 123.788 27.75V31C123.788 31.5 124.038 31.625 124.539 31.625V32.125C124.289 32.125 124.163 32.125 123.788 32.125C123.036 32.125 122.535 31.75 122.535 31.125V30.875C122.284 31.625 121.532 32.125 120.781 32.125C119.653 32.125 119.027 31.5 119.027 30.625C119.027 29.75 119.402 29.375 120.655 28.875L122.535 28.125V27.875C122.535 26.875 122.034 26.375 121.282 26.375C120.781 26.375 120.405 26.625 120.154 26.875C120.405 27 120.53 27.25 120.53 27.5C120.53 27.875 120.279 28.125 119.904 28.125C119.528 28.125 119.277 27.875 119.277 27.375C119.277 26.375 120.405 25.625 121.532 25.625ZM64.7755 23.875V25.75H66.5296V26.375H64.7755V30.5C64.7755 31 64.9008 31.375 65.5272 31.375C65.9031 31.375 66.279 31 66.4043 30.5L66.9054 30.625C66.6549 31.5 66.0284 32.125 65.1514 32.125C64.149 32.125 63.6479 31.625 63.6479 30.625V26.375H62.5203V25.875C63.272 25.75 64.0237 25.125 64.2743 23.75H64.7755V23.875ZM69.5366 25.625C71.04 25.625 72.0424 26.875 72.0424 28.5V28.875H68.1584C68.1584 30.375 68.9101 31.375 69.9124 31.375C70.7895 31.375 71.2906 30.875 71.5412 30.125L72.0424 30.25C71.7918 31.25 71.04 32.125 69.7871 32.125C68.0331 32.125 66.9054 30.5 66.9054 28.875C66.7802 27.25 67.9078 25.625 69.5366 25.625ZM104.618 23.875V25.75H106.372V26.375H104.618V30.5C104.618 31 104.743 31.375 105.37 31.375C105.746 31.375 106.122 31 106.247 30.5L106.748 30.625C106.497 31.5 105.871 32.125 104.994 32.125C103.992 32.125 103.49 31.625 103.49 30.625V26.375H102.363V25.875C103.115 25.75 103.866 25.125 104.117 23.75H104.618V23.875ZM95.973 25.625C97.3512 25.625 98.2282 26.375 98.2282 27.75V31C98.2282 31.5 98.4788 31.625 98.98 31.625V32.125C98.7294 32.125 98.4788 32.125 98.2282 32.125C97.4765 32.125 96.9753 31.75 96.9753 31.125V30.875C96.7247 31.625 95.973 32.125 95.2212 32.125C94.0936 32.125 93.4671 31.5 93.4671 30.625C93.4671 29.75 93.843 29.375 95.0959 28.875L96.9753 28.125V27.875C96.9753 26.875 96.4741 26.375 95.7224 26.375C95.2212 26.375 94.8454 26.625 94.5948 26.875C94.8454 27 94.9706 27.25 94.9706 27.5C94.9706 27.875 94.7201 28.125 94.3442 28.125C93.9683 28.125 93.7177 27.875 93.7177 27.375C93.5924 26.375 94.7201 25.625 95.973 25.625ZM90.4602 25.625C91.9637 25.625 92.966 26.875 92.966 28.5V28.875H89.082C89.082 30.375 89.8337 31.375 90.836 31.375C91.7131 31.375 92.2142 30.875 92.4648 30.125L92.966 30.25C92.7154 31.25 91.9637 32.125 90.7107 32.125C88.9567 32.125 87.829 30.5 87.829 28.875C87.7038 27.25 88.8314 25.625 90.4602 25.625ZM78.3069 23.125V30.875C78.3069 31.375 78.5575 31.625 79.0587 31.625H79.184V32.125H77.054V31.125C76.8034 31.875 76.177 32.25 75.2999 32.25C73.6712 32.25 72.6688 30.625 72.6688 29C72.6688 27.25 73.5459 25.75 75.2999 25.75C76.177 25.75 76.8034 26.125 77.054 26.875V24.625C77.054 24.125 76.8034 23.875 76.4276 23.875H76.177V23.5L78.3069 23.125ZM116.521 25.625C117.899 25.625 118.651 26.5 118.651 27.25C118.651 27.625 118.4 28 118.024 28C117.648 28 117.398 27.75 117.398 27.375C117.398 27.125 117.523 26.875 117.774 26.75C117.523 26.5 117.147 26.375 116.771 26.375C115.769 26.375 115.017 27.375 115.017 28.875C115.017 30.375 115.769 31.375 116.771 31.375C117.648 31.375 118.024 30.875 118.275 30.25L118.776 30.375C118.525 31.375 117.774 32.125 116.521 32.125C114.767 32.125 113.639 30.5 113.639 28.875C113.514 27.25 114.641 25.625 116.521 25.625ZM108.753 23.125V27.125C109.003 26.25 109.755 25.75 110.632 25.75C111.885 25.75 112.386 26.625 112.386 27.5V30.875C112.386 31.375 112.637 31.625 113.138 31.625H113.263V32.125H110.256V31.75H110.507C110.883 31.75 111.258 31.5 111.258 31V27.75C111.258 27 110.883 26.625 110.256 26.625C109.504 26.625 108.878 27.5 108.753 29V30.875C108.753 31.375 109.003 31.625 109.504 31.625H109.63V32.125H106.623V31.75H106.873C107.249 31.75 107.625 31.5 107.625 31V24.625C107.625 24.125 107.374 23.875 106.999 23.875H106.748V23.5L108.753 23.125ZM101.36 23.125V30.875C101.36 31.375 101.611 31.625 102.112 31.625H102.238V32.125H99.2305V31.75H99.4811C99.857 31.75 100.233 31.5 100.233 31V24.625C100.233 24.125 99.9823 23.875 99.6064 23.875H99.3558V23.5L101.36 23.125ZM61.5179 25.75V30.875C61.5179 31.375 61.7685 31.625 62.2697 31.625H62.395V32.125H59.388V31.75H59.6386C60.0144 31.75 60.3903 31.5 60.3903 31V27.125C60.3903 26.625 60.1397 26.375 59.7638 26.375H59.388V25.875L61.5179 25.75ZM56.5063 25.625C57.7592 25.625 58.2604 26.5 58.2604 27.375V30.875C58.2604 31.375 58.5109 31.625 59.0121 31.625H59.1374V32.125H56.1304V31.75H56.381C56.7569 31.75 57.1327 31.5 57.1327 31V27.75C57.1327 27 56.7569 26.625 56.1304 26.625C55.3787 26.625 54.7522 27.5 54.6269 29V30.875C54.6269 31.375 54.8775 31.625 55.3787 31.625H55.5039V32.125H52.497V31.75H52.7475C53.1234 31.75 53.4993 31.5 53.4993 31V27.125C53.4993 26.625 53.2487 26.375 52.8728 26.375H52.6223V25.875L54.7522 25.75V27.125C54.8775 26.125 55.6292 25.625 56.5063 25.625ZM128.674 25.625C129.426 25.625 129.927 26.125 129.927 26.875C129.927 27.25 129.676 27.625 129.3 27.625C128.925 27.625 128.674 27.375 128.674 27C128.674 26.75 128.799 26.5 129.05 26.375C128.925 26.25 128.799 26.25 128.674 26.25C127.797 26.25 127.17 27.25 127.17 28.75V30.875C127.17 31.375 127.421 31.625 127.922 31.625H128.047V32.125H125.041V31.75H125.291C125.667 31.75 126.043 31.5 126.043 31V27.125C126.043 26.625 125.792 26.375 125.416 26.375H125.166V25.875L127.296 25.75V27C127.296 26.125 127.922 25.625 128.674 25.625ZM82.8174 23.25V23.75H82.6921C82.191 23.75 81.8151 24 81.8151 24.5V27.25H85.0726V24.5C85.0726 24 84.6968 23.75 84.1956 23.75H83.945V23.25H87.3279V23.75H87.2026C86.7014 23.75 86.3256 24 86.3256 24.5V30.875C86.3256 31.375 86.7014 31.625 87.2026 31.625H87.3279V32.125H83.945V31.625H84.1956C84.6968 31.625 85.0726 31.375 85.0726 30.875V27.875H81.8151V30.875C81.8151 31.375 82.191 31.625 82.6921 31.625H82.8174V32.125H79.5598V31.625H79.8104C80.3116 31.625 80.6875 31.375 80.6875 30.875V24.5C80.6875 24 80.3116 23.75 79.8104 23.75H79.5598V23.25H82.8174ZM75.4252 26.375C74.5482 26.375 73.9217 27.375 73.9217 29C73.9217 30.625 74.5482 31.625 75.4252 31.625C76.3023 31.625 76.9287 30.625 76.9287 29C77.054 27.375 76.4276 26.375 75.4252 26.375ZM96.9753 28.75L95.4718 29.375C94.9706 29.625 94.7201 30 94.7201 30.5C94.7201 31.125 95.0959 31.5 95.5971 31.5C96.3488 31.5 96.9753 30.75 96.9753 29.625V28.75ZM122.66 28.75L121.156 29.375C120.655 29.625 120.405 30 120.405 30.5C120.405 31.125 120.781 31.5 121.282 31.5C122.034 31.5 122.66 30.75 122.66 29.625V28.75ZM132.683 26.375C131.932 26.375 131.43 27.125 131.305 28.375H133.811C133.811 27 133.435 26.375 132.683 26.375ZM90.4602 26.375C89.7084 26.375 89.2073 27.125 89.082 28.375H91.5878C91.5878 27 91.0866 26.375 90.4602 26.375ZM69.5366 26.375C68.7848 26.375 68.2836 27.125 68.1584 28.375H70.6642C70.6642 27 70.2883 26.375 69.5366 26.375ZM28.6917 24.25L29.1928 25.625C29.1928 25.75 29.3181 25.875 29.3181 26.25C29.3181 26 29.4434 25.875 29.4434 25.75V25.625V25.5L29.9446 24.125H30.6963L29.694 26.75C29.4434 27.25 29.4434 27.375 29.3181 27.5C29.1928 27.625 28.9422 27.75 28.6917 27.75C28.5664 27.75 28.4411 27.75 28.3158 27.75V27.25C28.4411 27.25 28.5664 27.25 28.5664 27.25C28.6917 27.25 28.8169 27.25 28.8169 27C28.9422 26.875 28.9422 26.75 28.9422 26.625L27.9399 24.125H28.6917V24.25ZM135.941 25.625C136.317 25.625 136.693 26 136.693 26.375C136.693 26.75 136.317 27.125 135.941 27.125C135.565 27.125 135.189 26.75 135.189 26.375C135.189 25.875 135.44 25.625 135.941 25.625ZM135.941 25.75C135.565 25.75 135.314 26 135.314 26.375C135.314 26.75 135.565 27 135.941 27C136.317 27 136.567 26.75 136.567 26.375C136.567 26 136.317 25.75 135.941 25.75ZM25.9353 23.25V24.625C26.1858 24.375 26.4364 24.25 26.8123 24.25C27.564 24.25 27.9399 24.75 27.9399 25.625C27.9399 26.5 27.4387 27 26.687 27C26.3111 27 25.9353 26.875 25.81 26.625V27H25.3088V23.375H25.9353V23.25ZM136.066 26C136.191 26 136.317 26.125 136.317 26.25C136.317 26.375 136.317 26.375 136.191 26.5C136.317 26.5 136.317 26.625 136.317 26.75V26.875H136.191V26.75C136.191 26.625 136.191 26.625 136.066 26.625H135.816V27H135.69V26.125H136.066V26ZM26.687 24.625C26.1858 24.625 25.9353 25 25.9353 25.5C25.9353 26.125 26.1858 26.375 26.687 26.375C27.0629 26.375 27.4387 26 27.4387 25.375C27.3135 25 27.0629 24.625 26.687 24.625ZM135.941 26H135.69V26.25H135.941C136.066 26.25 136.066 26.25 136.066 26.125C136.191 26.125 136.066 26 135.941 26ZM60.8915 23C61.2673 23 61.6432 23.375 61.6432 23.875C61.6432 24.375 61.2673 24.75 60.8915 24.75C60.3903 24.75 60.1397 24.375 60.1397 23.875C60.0144 23.375 60.3903 23 60.8915 23ZM20.673 4.875C24.1812 4.875 26.5617 7.5 26.5617 11.375V11.875H18.0419C18.1672 13.875 19.0442 14.875 20.7983 14.875C22.0512 14.875 22.6777 14.375 23.1789 13.25H26.3111C25.6847 15.625 23.5547 17.25 20.7983 17.25C17.1649 17.25 14.7843 14.75 14.7843 11.125C14.6591 7.5 17.1649 4.875 20.673 4.875ZM45.606 4.875C49.1141 4.875 51.4946 7.5 51.4946 11.375V11.875H42.9748C43.1001 13.875 43.9772 14.875 45.7312 14.875C46.9842 14.875 47.6106 14.375 48.1118 13.25H51.2441C50.6176 15.625 48.4877 17.25 45.7312 17.25C42.0978 17.25 39.7173 14.75 39.7173 11.125C39.592 7.5 42.0978 4.875 45.606 4.875ZM7.89334 0.75C9.64741 0.75 10.5245 1 11.5268 1.5C12.905 2.25 13.6567 3.75 13.6567 5.375C13.6567 7.25 12.6544 8.75 11.0256 9.375C12.7797 9.875 13.4061 11 13.5314 14.75C13.6567 15.875 13.782 16.5 14.0326 16.875L14.1579 17.125H10.3992C10.1486 16.75 10.0233 16.25 10.0233 14.875C9.898 11.375 9.27154 10.625 6.76572 10.625H3.50815V17H0V0.75H7.89334ZM34.5803 4.875C36.0838 4.875 37.3367 5.5 37.9632 6.5C38.4644 7.25 38.5897 8 38.5897 9.625V17H35.3321V10.25C35.3321 9.375 35.3321 9 35.0815 8.625C34.8309 8 34.0792 7.625 33.2021 7.625C32.1998 7.625 31.3228 8.125 30.9469 8.875C30.6963 9.375 30.571 9.875 30.571 11V17.125H27.3135V5.125H30.4457V6.75C31.6986 5.5 32.8263 4.875 34.5803 4.875ZM54.251 5.125L55.5039 9.625C55.8798 11 56.0051 11.875 56.5063 14C56.8822 11.875 57.0074 11.375 57.3833 9.5L58.5109 5.125H61.6432L62.8961 10C63.272 11.5 63.3973 12 63.6479 13.875C63.8985 12.5 64.0237 11.75 64.2743 11V10.75C64.2743 10.625 64.2743 10.5 64.3996 10.5V10.25C64.3996 10.125 64.3996 10.125 64.3996 10L65.7778 5.125H69.1607L65.4019 16.875H62.0191L60.6409 11.75C60.265 10.5 60.1397 9.875 59.8891 8.125C59.6386 9.25 59.5133 9.875 59.388 10.5V10.75C59.2627 11 59.2627 11.375 59.1374 11.625L57.8845 16.75H54.5016L50.7429 5H54.251V5.125ZM129.802 4.5C133.31 4.5 135.69 7.125 135.69 11V11.5H127.17C127.296 13.5 128.173 14.5 129.927 14.5C131.18 14.5 131.806 14 132.307 12.875H135.44C134.813 15.25 132.683 16.875 129.927 16.875C126.293 16.875 123.913 14.375 123.913 10.75C123.788 7.125 126.293 4.5 129.802 4.5ZM93.9683 4.5C97.1006 4.5 99.2305 6.25 99.4811 9H96.3488C96.0983 7.75 95.2212 7 93.9683 7C92.2142 7 91.0866 8.375 91.0866 10.75C91.0866 13.125 92.0889 14.5 93.843 14.5C95.2212 14.5 96.0983 13.625 96.3488 12.125H99.4811C99.1053 15.125 96.9753 17 93.843 17C90.2096 17 87.829 14.625 87.829 10.875C87.829 7 90.2096 4.5 93.9683 4.5ZM104.994 1.25V4.75H107.374V6.875H104.994V12.375C104.994 13.875 105.245 14.125 106.372 14.125C106.623 14.125 106.999 14.125 107.374 14V16.5C106.623 16.625 105.996 16.625 105.37 16.625C103.741 16.625 102.739 16.25 102.238 15.5C101.862 14.875 101.736 14.375 101.736 12.375V6.75H99.7317V4.875H101.736V1.25H104.994ZM116.145 4.875L117.648 9.625C118.149 11.5 118.525 12.625 118.651 13.75C118.901 12.625 119.027 11.75 119.653 9.75L121.156 5H124.414L120.405 16.75H116.771L112.637 5H116.145V4.875ZM111.885 4.875V16.625H108.627V4.875H111.885ZM82.191 0.375L88.4555 16.625H84.6968L83.4439 13H77.4299L76.0517 16.625H72.4182L78.6828 0.375H82.191ZM80.4369 3.875C80.1863 4.875 79.9357 5.375 79.3093 7.375L78.3069 10.25H82.6921L81.6898 7.375C81.1886 6.125 81.0633 5.375 80.8127 4.625V4.375C80.4369 4.375 80.4369 4.125 80.4369 3.875ZM20.673 7.125C19.1695 7.125 18.1672 8.125 18.0419 9.75H23.1789C22.9283 8.125 22.0512 7.125 20.673 7.125ZM45.606 7.125C44.1025 7.125 43.1001 8.125 42.9748 9.75H48.1118C47.8612 8.125 46.9842 7.125 45.606 7.125ZM129.802 6.875C128.298 6.875 127.296 7.875 127.17 9.5H132.307C132.057 7.75 131.18 6.875 129.802 6.875ZM7.0163 3.5H3.50815V8H6.89101C8.01863 8 8.77038 7.875 9.14625 7.5C9.7727 7.125 10.0233 6.5 10.0233 5.75C10.0233 4.125 9.14625 3.5 7.0163 3.5ZM110.381 0C111.258 0 112.136 0.875 112.136 1.875C112.136 2.875 111.258 3.75 110.256 3.75C109.254 3.75 108.377 2.875 108.377 1.875C108.502 0.875 109.254 0 110.381 0Z" fill="var(--fill-0, #FAFAFA)"/>
</g>
</svg>
