<svg preserveAspectRatio="none" width="100%" height="100%" overflow="visible" style="display: block;" viewBox="0 0 136 35" fill="none" xmlns="http://www.w3.org/2000/svg">
<g id="Component 1">
<path id="Vector" d="M53.7943 17.2528C53.7943 14.1848 51.7592 12.0302 49.1161 12.0302C46.4495 12.0302 44.4147 14.1848 44.4147 17.2528C44.4147 20.3208 46.4495 22.4755 49.1161 22.4755C51.7592 22.4755 53.7943 20.3208 53.7943 17.2528ZM57.4198 17.2528C57.4198 22.288 53.6774 25.7073 49.1161 25.7073C44.5316 25.7073 40.7891 22.288 40.7891 17.2528C40.7891 12.2174 44.5316 8.79816 49.1161 8.79816C53.6774 8.79816 57.4198 12.2174 57.4198 17.2528Z" fill="var(--fill-0, #FAFAFA)"/>
<path id="Vector_2" d="M58.9922 13.0377H62.2902L62.3137 14.3492C63.2959 13.3422 64.6293 12.8035 66.1028 12.8035C68.8864 12.8035 70.5004 14.7239 70.5004 17.3001V25.4502H67.132V18.1432C67.132 16.5742 66.2198 15.731 64.9334 15.731C64.0912 15.731 63.179 16.0589 62.3603 16.8084V25.4502H58.9922V13.0377Z" fill="var(--fill-0, #FAFAFA)"/>
<path id="Vector_3" d="M75.1965 18.0492H80.6466C80.5063 16.5035 79.4771 15.3793 77.9334 15.3793C76.6001 15.3793 75.5006 16.316 75.1965 18.0492ZM71.9219 19.2201C71.9219 15.4729 74.6119 12.85 77.9566 12.85C81.8161 12.85 83.8512 15.754 83.8512 19.2436C83.8512 19.5715 83.8278 19.8291 83.8044 20.1803H75.1733C75.5007 21.9603 76.717 23.1079 78.4245 23.1079C79.6409 23.1079 80.5765 22.6161 81.2781 21.6558L83.5704 23.0142C82.471 24.63 80.6466 25.6839 78.2842 25.6839C74.8692 25.6839 71.9219 23.1314 71.9219 19.2201Z" fill="var(--fill-0, #FAFAFA)"/>
<path id="Vector_4" d="M91.571 11.9132V16.6675H94.6586C96.2492 16.6675 97.2551 15.684 97.2551 14.2786C97.2551 12.8969 96.2492 11.9132 94.6586 11.9132H91.571ZM87.9922 25.45V9.05606H95.1028C98.7048 9.05606 100.787 11.2107 100.787 14.2786C100.787 17.1125 98.6582 19.4545 95.0796 19.4545H91.571V25.45H87.9922Z" fill="var(--fill-0, #FAFAFA)"/>
<path id="Vector_5" d="M106.209 23.2952C107.332 23.2952 108.244 22.7568 109.063 21.9369V20.04L106.981 20.4849C105.11 20.8831 104.525 21.2577 104.525 22.0541C104.525 22.8036 105.18 23.2952 106.209 23.2952ZM101.414 22.4053C101.414 20.4381 102.372 19.2202 105.765 18.5879L109.063 17.979V17.6043C109.063 16.3864 108.221 15.4964 106.888 15.4964C105.508 15.4964 104.922 16.3631 104.431 17.534L101.555 16.8782C102.139 14.5597 104.104 12.8501 107.075 12.8501C110.606 12.8501 112.384 14.8174 112.384 17.5106V25.4499H109.109V23.9979C108.08 25.005 106.654 25.684 105.18 25.684C102.865 25.684 101.414 24.279 101.414 22.4053Z" fill="var(--fill-0, #FAFAFA)"/>
<path id="Vector_6" d="M115.504 21.9136C116.721 22.944 117.89 23.3421 118.966 23.3421C120.206 23.3421 120.861 22.8035 120.861 22.1008C120.861 21.4685 120.44 21.1173 119.434 20.8363L117.61 20.321C115.131 19.6184 114.171 18.4239 114.171 16.6441C114.171 14.2787 116.16 12.8267 118.919 12.8267C120.978 12.8267 122.452 13.4823 123.902 14.7471L122.077 16.6909C121.071 15.7073 119.995 15.2155 118.896 15.2155C117.913 15.2155 117.329 15.6839 117.329 16.3396C117.329 16.9485 117.774 17.253 118.709 17.5575L120.463 18.1195C123.153 18.9861 124.019 19.9932 124.019 21.773C124.019 24.115 122.054 25.7075 118.943 25.7075C116.838 25.7075 115.201 25.0753 113.727 23.8574L115.504 21.9136Z" fill="var(--fill-0, #FAFAFA)"/>
<path id="Vector_7" d="M126.426 21.9136C127.643 22.944 128.812 23.3421 129.888 23.3421C131.128 23.3421 131.782 22.8035 131.782 22.1008C131.782 21.4685 131.362 21.1173 130.356 20.8363L128.531 20.321C126.052 19.6184 125.093 18.4239 125.093 16.6441C125.093 14.2787 127.081 12.8267 129.841 12.8267C131.9 12.8267 133.373 13.4823 134.823 14.7471L132.999 16.6909C131.993 15.7073 130.917 15.2155 129.818 15.2155C128.835 15.2155 128.251 15.6839 128.251 16.3396C128.251 16.9485 128.696 17.253 129.631 17.5575L131.385 18.1195C134.075 18.9861 134.94 19.9932 134.94 21.773C134.94 24.115 132.976 25.7075 129.865 25.7075C127.759 25.7075 126.122 25.0753 124.648 23.8574L126.426 21.9136Z" fill="var(--fill-0, #FAFAFA)"/>
<path id="Vector_8" d="M7.27626 13.6852C5.82214 12.8796 4.96355 11.4153 4.86354 9.86952C4.89034 9.74634 4.90595 9.62005 4.90679 9.49092C4.91207 8.68216 5.12635 7.86113 5.57538 7.10789C5.86177 6.62754 6.22573 6.21541 6.64235 5.87839C7.94965 4.85226 9.75493 4.56453 11.3406 5.22135C11.3425 5.22221 11.3445 5.22307 11.3466 5.22393C11.3797 5.2377 11.4126 5.25299 11.4455 5.26762C12.9525 5.96361 14.0568 7.4419 14.1708 9.25376C14.2912 11.1667 13.215 12.9341 11.5609 13.7566C11.4478 13.8128 11.3425 13.8797 11.2442 13.9539C9.99175 14.4382 8.54291 14.3869 7.27626 13.6852ZM27.4 9.66869C25.5537 8.60317 23.4823 8.30468 21.5475 8.66903C21.5475 8.66903 19.9257 9.01164 18.0268 10.0061C18.0523 9.52837 18.0392 9.04243 17.9821 8.55153C17.8291 7.2353 17.3794 6.02064 16.7087 4.96676C16.651 4.81568 16.5735 4.66869 16.4726 4.52923C15.7594 3.54637 14.8252 2.70037 13.6935 2.07324C13.2432 1.82402 12.78 1.62217 12.3095 1.46096C12.295 1.4558 12.2802 1.45128 12.2658 1.44612C12.1874 1.41964 12.109 1.39317 12.0302 1.36928C10.9342 1.02193 9.75396 0.890227 8.54569 1.02387L8.54484 1.02237C8.53788 1.02323 8.53106 1.02473 8.52428 1.0256C8.51898 1.02624 8.51379 1.02646 8.50857 1.0271L8.50865 1.02818C7.07828 1.21433 5.70929 1.76313 4.5376 2.62375C4.53199 2.62806 4.52636 2.63214 4.52073 2.63624C4.43342 2.70059 4.34676 2.76579 4.26179 2.83358C3.35862 3.54378 2.58281 4.44788 2.00482 5.52889C-0.152737 9.56409 1.27621 14.6425 5.21871 16.9593C7.70759 18.4218 10.6678 18.5988 13.041 17.3933C14.5892 16.6072 15.3395 16.0909 17.5664 14.6028C20.6643 12.5326 22.3693 12.4486 22.3693 12.4486C23.3737 12.2839 24.439 12.4436 25.3987 12.9754C27.765 14.2863 28.5578 17.3408 27.063 19.6538C25.793 21.6194 23.2173 22.3472 21.1073 21.338C20.317 20.9599 19.6842 20.3952 19.2324 19.725C19.1822 19.6505 19.1267 19.5812 19.0676 19.5162C18.798 18.6605 17.9994 18.0399 17.0559 18.0399C15.8908 18.0399 14.9465 18.9855 14.9465 20.1521V31.9155C14.9465 33.0819 15.8908 34.0276 17.0559 34.0276C18.2208 34.0276 19.1652 33.0819 19.1652 31.9155V24.683C23.2289 26.8096 28.2564 25.3481 30.544 21.3597C32.8813 17.2846 31.4667 12.0147 27.4 9.66869Z" fill="var(--fill-0, #FAFAFA)"/>
</g>
</svg>
