<svg preserveAspectRatio="none" width="100%" height="100%" overflow="visible" style="display: block;" viewBox="0 0 42.3353 42" fill="none" xmlns="http://www.w3.org/2000/svg">
<g id="Lines">
<path id="Path" d="M30.6023 32.6455L0.595903 41.9791C0.299764 42.0712 0 41.8471 0 41.5336V34.6844C0 34.4797 0.131864 34.299 0.325331 34.2389L30.3317 24.9052C30.6278 24.8131 30.9276 25.0372 30.9276 25.3508V32.1999C30.9276 32.4047 30.7955 32.5854 30.6023 32.6455Z" fill="var(--fill-0, #5200D4)"/>
<path id="Path_2" d="M36.3061 20.2033L6.29976 29.537C6.00362 29.6291 5.70386 29.405 5.70386 29.0914V22.2422C5.70386 22.0375 5.83572 21.8568 6.02919 21.7967L36.0355 12.463C36.3317 12.371 36.6314 12.5951 36.6314 12.9086V19.7578C36.6314 19.9625 36.4996 20.1432 36.3061 20.2033Z" fill="var(--fill-0, #3366FF)"/>
<path id="Path_3" d="M42.0101 7.76116L12.0038 17.0948C11.7076 17.1869 11.4079 16.9628 11.4079 16.6493V9.80008C11.4079 9.59534 11.5397 9.41463 11.7332 9.35453L41.7394 0.0208756C42.0355 -0.07121 42.3353 0.152892 42.3353 0.466431V7.3156C42.3353 7.52015 42.2034 7.70106 42.0101 7.76116Z" fill="var(--fill-0, #80E8FF)"/>
</g>
</svg>
