<svg preserveAspectRatio="none" width="100%" height="100%" overflow="visible" style="display: block;" viewBox="0 0 88.7956 24.5824" fill="none" xmlns="http://www.w3.org/2000/svg">
<g id="Text">
<path id="Shape" d="M36.5444 2.81701e-05C29.8733 2.81701e-05 23.4651 5.45508 22.2711 12.3081C21.0829 19.1271 25.5903 24.5824 32.2614 24.5824C38.9325 24.5824 45.3408 19.1269 46.5288 12.3081C47.7228 5.45508 43.2155 2.81701e-05 36.5444 2.81701e-05ZM33.0455 20.0816C28.8341 20.0816 26.1268 16.6722 26.8872 12.3081C27.6536 7.91002 31.5491 4.50061 35.7605 4.50061C39.9719 4.50061 42.6792 7.91002 41.913 12.3081C41.1524 16.672 37.2569 20.0816 33.0455 20.0816Z" fill="var(--fill-0, #140D26)"/>
<path id="Shape_2" d="M14.6818 11.3534C16.5191 10.6715 18.1262 8.79622 18.5598 6.30746C19.1241 3.06837 17.2867 0.272799 12.6036 0.272799H4.58489H1.99915C1.6398 0.272799 1.35996 0.684944 1.51941 0.979536L3.36268 4.38528L0.00992099 23.6275C-0.0436298 23.9345 0.123062 24.1391 0.426449 24.1391H8.44518C14.341 24.1391 17.5532 21.7526 18.3374 17.2518C18.8779 14.1494 17.062 12.0013 14.6818 11.3534ZM7.9763 4.39811H11.4462C13.2996 4.39811 14.4274 5.07999 14.1125 6.88687C13.7797 8.79622 12.4128 9.68285 10.5254 9.68285H7.05547L7.9763 4.39811ZM9.29836 20.0138H5.25548L6.38428 13.5356H10.4272C12.8863 13.5356 14.1848 14.5925 13.8105 16.7406C13.4184 18.9906 11.7575 20.0138 9.29836 20.0138Z" fill="var(--fill-0, #140D26)"/>
<path id="Path" d="M62.4907 20.0138H54.8422L58.1927 0.784364C58.2463 0.477547 58.0802 0.272799 57.7768 0.272799L53.9529 1.52818C53.5986 1.63616 53.4122 1.73293 53.3586 2.03974L49.5972 23.6277C49.5437 23.9347 49.7103 24.1393 50.0133 24.1393H61.7722C62.0749 24.1393 62.3129 23.9349 62.3664 23.6277L62.907 20.5251C62.9601 20.2181 62.7934 20.0138 62.4907 20.0138Z" fill="var(--fill-0, #140D26)"/>
<path id="Shape_3" d="M78.288 0.272799H71.6503H69.0646C68.7053 0.272799 68.4254 0.684944 68.5849 0.979536L70.4285 4.38609L67.076 23.6275C67.0224 23.9345 67.1885 24.1391 67.4919 24.1391H74.1296C82.2156 24.1391 87.4148 18.8543 88.5732 12.2062C89.7316 5.55754 86.374 0.272799 78.288 0.272799ZM74.8485 20.0138H72.3215L75.0424 4.39832H77.5693C82.6899 4.39832 84.7455 7.29657 83.8901 12.2062C83.0347 17.1159 79.9688 20.0138 74.8485 20.0138Z" fill="var(--fill-0, #140D26)"/>
</g>
</svg>
